<svg xmlns="http://www.w3.org/2000/svg" fill="none" viewBox="0 0 32 32"><defs></defs><path d="M16 2c-3.8 0-4.28.02-5.77.08-1.5.07-2.5.3-3.4.65-.93.36-1.78.9-2.48 1.62a6.79 6.79 0 00-1.62 2.48c-.34.9-.58 1.9-.65 3.4C2.01 11.73 2 12.19 2 16c0 3.8.02 4.28.08 5.77.07 1.5.3 2.5.65 3.4.36.93.9 1.78 1.62 2.48.7.71 1.55 1.27 2.48 1.62.9.34 1.9.58 3.4.65 1.5.07 1.96.08 5.77.08 3.8 0 4.28-.02 5.77-.08 1.5-.07 2.5-.31 3.4-.65.93-.36 1.78-.9 2.48-1.62a6.75 6.75 0 001.62-2.48c.34-.9.58-1.9.65-3.4.07-1.5.08-1.96.08-5.77 0-3.8-.02-4.28-.08-5.77-.07-1.5-.31-2.51-.65-3.4a6.87 6.87 0 00-1.62-2.48 6.75 6.75 0 00-2.48-1.62c-.9-.34-1.9-.58-3.4-.65C20.27 2.01 19.81 2 16 2zm0 2.52c3.74 0 4.18.02 5.66.08 1.36.07 2.1.3 2.6.49.6.22 1.16.58 1.61 1.04.47.45.82 1 1.05 1.61.19.5.42 1.24.48 2.6.06 1.48.08 1.92.08 5.66s-.02 4.18-.09 5.66a7.96 7.96 0 01-.49 2.6 4.55 4.55 0 01-2.66 2.66c-.49.19-1.24.42-2.6.48-1.5.06-1.93.08-5.68.08a95 95 0 01-5.67-.09 8.04 8.04 0 01-2.6-.49 4.4 4.4 0 01-1.62-1.05c-.49-.49-.8-.96-1.04-1.61a7.83 7.83 0 01-.5-2.6c-.05-1.48-.07-1.93-.07-5.66 0-3.73.02-4.18.07-5.67.08-1.37.3-2.12.5-2.6.24-.67.55-1.13 1.04-1.62.5-.49.95-.8 1.61-1.05a7.8 7.8 0 012.6-.49c1.48-.05 1.92-.07 5.66-.07l.06.04zm0 4.3a7.19 7.19 0 100 14.36 7.19 7.19 0 000-14.37zm0 11.85a4.66 4.66 0 110-9.33 4.66 4.66 0 010 9.33zm9.16-12.14a1.68 1.68 0 11-3.37 0 1.68 1.68 0 013.37 0z"></path></svg>