<svg xmlns="http://www.w3.org/2000/svg" fill="currentColor" viewBox="0 0 32 32"><defs></defs><path d="M28.9 24.68h-3.05c-1.16 0-1.52-.91-3.6-3.02-1.8-1.76-2.6-1.99-3.05-1.99-.63 0-.81.18-.81 1.04v2.76c0 .74-.23 1.19-2.2 1.19-3.23 0-6.83-1.96-9.35-5.61C3.04 13.7 2 9.69 2 8.86 2 8.42 2.18 8 3.03 8H6.1c.78 0 1.07.36 1.37 1.18 1.52 4.37 4.04 8.2 5.08 8.2.38 0 .56-.18.56-1.15V11.7c-.12-2.08-1.21-2.26-1.21-3 0-.35.3-.71.77-.71h4.8c.66 0 .9.36.9 1.12v6.1c0 .65.3.88.47.88.39 0 .71-.23 1.43-.94 2.2-2.47 3.77-6.27 3.77-6.27.2-.45.56-.86 1.34-.86h3.06c.91 0 1.12.47.91 1.13-.38 1.78-4.13 7.06-4.13 7.06-.32.54-.44.77 0 1.37.33.44 1.4 1.37 2.11 2.2 1.31 1.48 2.32 2.73 2.59 3.59.3.86-.15 1.3-1.01 1.3z"></path></svg>